<svg width="180" height="52" viewBox="0 0 180 52" fill="none" xmlns="http://www.w3.org/2000/svg">
<g clip-path="url(#clip0_88_145)">
<path d="M50.2383 32.212V16.9311H56.8886C58.2642 16.9311 59.4494 17.1539 60.4442 17.5975C61.4391 18.0412 62.2081 18.6779 62.7493 19.5077C63.2906 20.3374 63.5613 21.3194 63.5613 22.4554C63.5613 23.5915 63.2906 24.592 62.7493 25.4125C62.2081 26.2348 61.4391 26.8604 60.4442 27.2892C59.4494 27.718 58.2642 27.9333 56.8886 27.9333H52.1906L53.8145 26.4056V32.212H50.2364H50.2383ZM53.8163 26.7991L52.1925 25.1173H56.6926C57.7751 25.1173 58.5945 24.8853 59.1508 24.4194C59.707 23.9535 59.9851 23.2982 59.9851 22.4554C59.9851 21.6127 59.707 20.9611 59.1508 20.5026C58.5945 20.0441 57.7751 19.8158 56.6926 19.8158H52.1925L53.8163 18.134V26.801V26.7991ZM60.028 32.212L56.1644 26.6673H59.9832L63.8468 32.212H60.028Z" fill="#3CB371"/>
<path d="M67.8411 18.8301C67.1972 18.8301 66.6783 18.6482 66.2826 18.2844C65.8869 17.9205 65.6909 17.4695 65.6909 16.9311C65.6909 16.3928 65.8888 15.9417 66.2826 15.5779C66.6783 15.2141 67.1972 15.0322 67.8411 15.0322C68.485 15.0322 68.9853 15.2029 69.3884 15.5445C69.7916 15.8861 69.9913 16.326 69.9913 16.8643C69.9913 17.4323 69.7934 17.902 69.3996 18.2714C69.0039 18.6426 68.485 18.8283 67.8411 18.8283V18.8301ZM66.1295 32.212V20.4674H69.5527V32.212H66.1295Z" fill="#3CB371"/>
<path d="M76.7088 32.3865C75.699 32.3865 74.734 32.2659 73.812 32.0264C72.8899 31.787 72.1508 31.4844 71.5946 31.1206L72.7145 28.6981C73.2707 29.0192 73.9184 29.2847 74.6575 29.4944C75.3966 29.7061 76.1246 29.8119 76.8413 29.8119C77.6308 29.8119 78.1908 29.7172 78.5211 29.5279C78.8496 29.3385 79.0157 29.0768 79.0157 28.7427C79.0157 28.4661 78.887 28.2582 78.6312 28.1208C78.3755 27.9834 78.0377 27.8776 77.6215 27.8034C77.2052 27.731 76.7386 27.6586 76.2272 27.5843C75.7139 27.5119 75.2062 27.4098 74.7023 27.2781C74.1983 27.1463 73.7299 26.9606 73.2968 26.7212C72.8657 26.4817 72.5204 26.1494 72.2647 25.7281C72.009 25.3067 71.8802 24.7609 71.8802 24.0908C71.8802 23.3483 72.1004 22.6912 72.539 22.1157C72.9777 21.5403 73.5992 21.0929 74.4055 20.7736C75.21 20.4544 76.1843 20.2929 77.3247 20.2929C78.1441 20.2929 78.9672 20.3838 79.7941 20.5657C80.6209 20.7477 81.319 20.9983 81.8901 21.3194L80.7273 23.7418C80.1711 23.4226 79.6037 23.1961 79.0269 23.0643C78.4483 22.9325 77.8958 22.8675 77.3695 22.8675C76.58 22.8675 76.0088 22.9696 75.6579 23.1738C75.307 23.378 75.1316 23.6397 75.1316 23.959C75.1316 24.2505 75.2641 24.4714 75.5273 24.6254C75.7905 24.7776 76.1339 24.8909 76.5594 24.9633C76.9831 25.0357 77.4516 25.1081 77.9649 25.1823C78.4763 25.2547 78.9821 25.3568 79.4786 25.4886C79.9751 25.6204 80.4399 25.806 80.8729 26.0455C81.3041 26.2849 81.6475 26.6172 81.9051 27.0386C82.1608 27.46 82.2896 28.0057 82.2896 28.6758C82.2896 29.3886 82.0693 30.0253 81.6307 30.5859C81.1921 31.1465 80.5593 31.5865 79.7325 31.9076C78.9056 32.2269 77.8996 32.3884 76.7144 32.3884L76.7088 32.3865Z" fill="#3CB371"/>
<path d="M84.3912 32.212V16.0141H87.8143V32.212H84.3912ZM87.2227 29.8119L87.3104 25.6427L92.8203 20.4692H96.9023L91.6126 25.8172L89.8339 27.2799L87.2227 29.8119ZM93.1917 32.212L89.1974 27.2781L91.3476 24.6366L97.339 32.212H93.1898H93.1917Z" fill="#3CB371"/>
<path d="M99.6012 32.212V16.9311H105.593C106.938 16.9311 108.088 17.1428 109.038 17.5641C109.988 17.9855 110.72 18.5981 111.233 19.3981C111.745 20.1982 112.002 21.1523 112.002 22.2587C112.002 23.365 111.746 24.3136 111.233 25.1081C110.72 25.9007 109.99 26.5133 109.038 26.9421C108.086 27.3709 106.938 27.5862 105.593 27.5862H100.807L101.794 26.5597V32.2139H99.5993L99.6012 32.212ZM101.796 26.7769L100.809 25.6854H105.527C106.933 25.6854 107.997 25.3865 108.721 24.7906C109.445 24.1948 109.807 23.3502 109.807 22.2587C109.807 21.1672 109.445 20.3226 108.721 19.7267C107.997 19.1308 106.933 18.832 105.527 18.832H100.809L101.796 17.7405V26.7769Z" fill="#E9F0FF"/>
<path d="M121.353 20.5342C122.303 20.5342 123.141 20.7161 123.865 21.0799C124.59 21.4438 125.157 21.9969 125.566 22.7394C125.975 23.482 126.18 24.4212 126.18 25.5554V32.2139H124.073V25.7967C124.073 24.6755 123.798 23.8328 123.25 23.2648C122.701 22.6968 121.928 22.4127 120.933 22.4127C120.187 22.4127 119.535 22.5575 118.979 22.849C118.423 23.1404 117.995 23.5692 117.695 24.1372C117.394 24.7052 117.245 25.4106 117.245 26.2552V32.2139H115.138V16.016H117.245V23.766L116.829 22.9362C117.21 22.1788 117.794 21.5904 118.585 21.1672C119.375 20.7458 120.297 20.5342 121.351 20.5342H121.353Z" fill="#E9F0FF"/>
<path d="M130.374 36.578C129.818 36.578 129.276 36.4871 128.75 36.3051C128.224 36.1232 127.77 35.8578 127.389 35.5088L128.289 33.9365C128.582 34.2131 128.903 34.4247 129.254 34.5695C129.605 34.7143 129.978 34.7886 130.374 34.7886C130.885 34.7886 131.311 34.6568 131.647 34.395C131.983 34.1333 132.298 33.6674 132.591 32.9973L133.316 31.4046L133.536 31.1428L138.101 20.6437H140.164L134.523 33.3704C134.187 34.1853 133.81 34.8257 133.392 35.2916C132.976 35.7575 132.519 36.088 132.02 36.2847C131.522 36.4815 130.973 36.5799 130.374 36.5799V36.578ZM133.14 32.5833L127.828 20.6437H130.023L134.544 30.9461L133.138 32.5833H133.14Z" fill="#E9F0FF"/>
<path d="M145.321 32.3438C144.356 32.3438 143.436 32.212 142.566 31.9503C141.694 31.6886 141.011 31.3693 140.513 30.9906L141.39 29.3311C141.888 29.6652 142.502 29.9492 143.234 30.1831C143.966 30.4152 144.712 30.5321 145.472 30.5321C146.452 30.5321 147.159 30.3947 147.59 30.1182C148.022 29.8416 148.238 29.4555 148.238 28.9617C148.238 28.5979 148.106 28.3139 147.842 28.1097C147.579 27.9055 147.232 27.7533 146.799 27.6512C146.368 27.5491 145.888 27.4581 145.362 27.3783C144.835 27.2985 144.309 27.1964 143.781 27.072C143.255 26.9476 142.771 26.7731 142.332 26.5485C141.894 26.3239 141.543 26.0102 141.278 25.6093C141.015 25.2083 140.882 24.6737 140.882 24.0054C140.882 23.3372 141.08 22.6949 141.476 22.1714C141.871 21.648 142.431 21.2433 143.156 20.9593C143.88 20.6753 144.74 20.5342 145.735 20.5342C146.495 20.5342 147.267 20.6251 148.051 20.8071C148.833 20.989 149.474 21.247 149.972 21.5811L149.072 23.2406C148.546 22.8917 147.997 22.6522 147.426 22.5204C146.855 22.3886 146.284 22.3236 145.715 22.3236C144.793 22.3236 144.106 22.4721 143.652 22.771C143.199 23.0699 142.971 23.4523 142.971 23.9163C142.971 24.3099 143.105 24.6106 143.378 24.8222C143.648 25.0338 143.999 25.1972 144.432 25.3141C144.863 25.4311 145.343 25.5294 145.869 25.6093C146.396 25.6891 146.924 25.7912 147.45 25.9155C147.977 26.0399 148.456 26.2107 148.888 26.4279C149.319 26.6469 149.67 26.9513 149.942 27.3449C150.213 27.7384 150.347 28.2619 150.347 28.9171C150.347 29.6151 150.142 30.2203 149.733 30.7289C149.322 31.2394 148.746 31.6347 147.999 31.9188C147.253 32.2028 146.36 32.3438 145.321 32.3438Z" fill="#E9F0FF"/>
<path d="M154.035 18.4162C153.625 18.4162 153.285 18.2844 153.014 18.0226C152.744 17.7609 152.607 17.4416 152.607 17.0629C152.607 16.6843 152.742 16.3427 153.014 16.081C153.285 15.8192 153.625 15.6874 154.035 15.6874C154.446 15.6874 154.786 15.8155 155.056 16.0698C155.327 16.3241 155.463 16.6416 155.463 17.0202C155.463 17.3989 155.331 17.7442 155.068 18.0134C154.804 18.2825 154.461 18.418 154.035 18.418V18.4162ZM152.981 32.212V20.6418H155.088V32.212H152.981Z" fill="#E9F0FF"/>
<path d="M164.176 32.3438C162.991 32.3438 161.932 32.0895 161.005 31.5791C160.075 31.0704 159.347 30.3706 158.821 29.4833C158.295 28.596 158.031 27.5769 158.031 26.4279C158.031 25.2788 158.295 24.2597 158.821 23.3724C159.347 22.4851 160.075 21.789 161.005 21.2878C161.934 20.7866 162.991 20.5342 164.176 20.5342C165.229 20.5342 166.169 20.7421 166.996 21.156C167.823 21.57 168.463 22.1863 168.917 23.0012L167.314 24.0277C166.933 23.4597 166.468 23.042 165.919 22.7729C165.371 22.5037 164.781 22.3682 164.152 22.3682C163.39 22.3682 162.711 22.5353 162.11 22.8694C161.509 23.2035 161.035 23.6732 160.684 24.2764C160.333 24.8797 160.157 25.5963 160.157 26.426C160.157 27.2558 160.333 27.976 160.684 28.5867C161.035 29.1974 161.511 29.6708 162.11 30.0049C162.709 30.3391 163.39 30.5061 164.152 30.5061C164.781 30.5061 165.371 30.3725 165.919 30.1015C166.468 29.8323 166.933 29.4146 167.314 28.8466L168.917 29.8509C168.463 30.6509 167.823 31.2672 166.996 31.696C166.169 32.1248 165.229 32.3401 164.176 32.3401V32.3438Z" fill="#E9F0FF"/>
<path d="M174.974 32.3438C174.009 32.3438 173.088 32.212 172.219 31.9503C171.347 31.6886 170.664 31.3693 170.165 30.9906L171.043 29.3311C171.541 29.6652 172.155 29.9492 172.887 30.1831C173.618 30.4152 174.365 30.5321 175.125 30.5321C176.105 30.5321 176.812 30.3947 177.243 30.1182C177.674 29.8416 177.891 29.4555 177.891 28.9617C177.891 28.5979 177.758 28.3139 177.495 28.1097C177.232 27.9055 176.885 27.7533 176.452 27.6512C176.021 27.5491 175.541 27.4581 175.015 27.3783C174.488 27.2985 173.962 27.1964 173.434 27.072C172.907 26.9476 172.424 26.7731 171.985 26.5485C171.547 26.3239 171.196 26.0102 170.931 25.6093C170.668 25.2083 170.535 24.6737 170.535 24.0054C170.535 23.3372 170.733 22.6949 171.129 22.1714C171.524 21.648 172.084 21.2433 172.808 20.9593C173.533 20.6753 174.393 20.5342 175.388 20.5342C176.148 20.5342 176.92 20.6251 177.704 20.8071C178.486 20.989 179.126 21.247 179.625 21.5811L178.725 23.2406C178.199 22.8917 177.65 22.6522 177.079 22.5204C176.508 22.3886 175.937 22.3236 175.367 22.3236C174.445 22.3236 173.758 22.4721 173.305 22.771C172.851 23.0699 172.624 23.4523 172.624 23.9163C172.624 24.3099 172.758 24.6106 173.031 24.8222C173.301 25.0338 173.652 25.1972 174.085 25.3141C174.516 25.4311 174.996 25.5294 175.522 25.6093C176.049 25.6891 176.577 25.7912 177.103 25.9155C177.63 26.0399 178.109 26.2107 178.54 26.4279C178.972 26.6469 179.322 26.9513 179.595 27.3449C179.866 27.7384 180 28.2619 180 28.9171C180 29.6151 179.795 30.2203 179.386 30.7289C178.975 31.2394 178.399 31.6347 177.652 31.9188C176.905 32.2028 176.013 32.3438 174.974 32.3438Z" fill="#E9F0FF"/>
<path d="M39.6929 41.8533C39.1012 41.6751 38.4964 41.703 37.9552 41.8942L35.7602 39.3771C39.9934 35.6849 42.2518 30.027 41.4399 24.2335C41.4306 24.1648 41.4212 24.0962 41.41 24.0275C41.3988 23.9588 41.3895 23.8883 41.3783 23.8196C41.3428 23.6154 41.3055 23.4112 41.2644 23.2051C41.2458 23.1198 41.229 23.0362 41.2103 22.9527L41.1711 22.7745C41.1562 22.7151 41.1431 22.6538 41.1282 22.5944C41.1189 22.5554 41.1095 22.5183 41.1002 22.4812C41.0927 22.4515 41.0853 22.4218 41.0778 22.3939C41.0741 22.3791 41.0703 22.3661 41.0666 22.3513C41.0498 22.2807 41.0311 22.2102 41.0106 22.1415C40.9938 22.071 40.9733 22.0004 40.9527 21.9317C40.9135 21.7925 40.8725 21.6551 40.8296 21.5178C40.809 21.4491 40.7866 21.3804 40.7642 21.3117C40.124 19.3422 39.1516 17.5602 37.9216 16.0139C37.2963 15.2268 36.6057 14.4992 35.8591 13.8421L37.9589 11.3992C38.7671 11.6294 39.6686 11.4957 40.3947 10.9574C41.6265 10.0441 41.8804 8.30849 40.9602 7.0852C40.0419 5.86005 38.2986 5.6076 37.0667 6.52274C35.9898 7.32094 35.6613 8.74657 36.21 9.91046L34.0374 12.4387C31.2582 10.5806 27.9396 9.53363 24.4848 9.53549L24.3821 5.25676C24.5818 5.16023 24.7722 5.03958 24.9495 4.89293C26.131 3.91467 26.2896 2.16977 25.306 0.994739C24.3224 -0.17843 22.5679 -0.33807 21.3883 0.64019C20.2068 1.61845 20.0463 3.36335 21.0299 4.53838C21.3229 4.88922 21.685 5.14724 22.0789 5.31245L22.1852 9.69142C21.545 9.77866 20.903 9.90303 20.2609 10.0645C11.1021 12.3812 5.53808 21.7424 7.91038 30.84C8.43673 32.8541 9.30278 34.6918 10.4357 36.3031L9.17399 37.5653L10.2155 38.5956L0.534035 48.1071C0.115942 48.497 -0.0931037 49.0947 0.0412832 49.6998C0.240997 50.6038 1.12758 51.1774 2.02162 50.9825C2.33706 50.9138 2.6133 50.7561 2.82608 50.5426L12.5915 40.9493L12.6643 41.0217L13.6647 42.0111L14.9582 40.7192C15.2755 40.9326 15.6022 41.1331 15.9344 41.3243L15.94 41.3206C17.8214 42.3991 19.9119 43.123 22.0975 43.4275L22.0322 46.7539C21.965 46.7855 21.8997 46.8226 21.8343 46.8616C20.5185 47.6524 20.0967 49.3527 20.8918 50.6614C21.6869 51.9701 23.3985 52.3896 24.7125 51.5988C26.0283 50.808 26.4502 49.1077 25.655 47.799C25.3359 47.2718 24.8674 46.8894 24.3373 46.6722L24.397 43.5945C25.8081 43.6001 27.2434 43.4312 28.6731 43.0729C30.5956 42.5903 32.3595 41.7995 33.9254 40.7693L36.2959 43.4906C36.2697 43.5593 36.2455 43.6298 36.2231 43.7022C35.7789 45.1649 36.6113 46.7094 38.0821 47.1512C39.5547 47.593 41.1058 46.7651 41.5519 45.3023C41.9961 43.8396 41.1637 42.2951 39.691 41.8533H39.6929ZM28.0497 40.2978C24.4568 41.2203 20.832 40.6969 17.7971 39.093C17.1196 38.7366 16.4701 38.3227 15.8579 37.8623C14.9788 37.1978 14.1724 36.4311 13.4632 35.5735L13.4426 35.5476C12.1044 33.9233 11.1077 31.9761 10.5925 29.7857C8.82496 22.2584 13.5136 14.6533 21.0579 12.797C25.6084 11.6776 30.1943 12.8694 33.5596 15.6278C34.42 16.3313 35.2002 17.1388 35.8796 18.0354C36.9715 19.4796 37.804 21.1558 38.2874 23.0121C40.2341 30.4948 35.5754 38.3635 28.0497 40.2978Z" fill="#E9F0FF"/>
<path d="M9.17377 12.2756C10.7107 12.2756 11.9567 11.0364 11.9567 9.50787C11.9567 7.97931 10.7107 6.74016 9.17377 6.74016C7.6368 6.74016 6.39084 7.97931 6.39084 9.50787C6.39084 11.0364 7.6368 12.2756 9.17377 12.2756Z" fill="#E9F0FF"/>
<path d="M24.6899 18.8116H17.8959C17.3124 18.8116 16.8394 19.2819 16.8394 19.8622V26.6191C16.8394 27.1993 17.3124 27.6697 17.8959 27.6697H24.6899C25.2733 27.6697 25.7463 27.1993 25.7463 26.6191V19.8622C25.7463 19.2819 25.2733 18.8116 24.6899 18.8116Z" fill="#3CB371"/>
<path d="M32.3536 26.9216H27.9095C27.5055 26.9216 27.1779 27.2474 27.1779 27.6493V32.0691C27.1779 32.471 27.5055 32.7968 27.9095 32.7968H32.3536C32.7577 32.7968 33.0853 32.471 33.0853 32.0691V27.6493C33.0853 27.2474 32.7577 26.9216 32.3536 26.9216Z" fill="#3CB371"/>
<path d="M30.7709 21.0261H28.0383C27.5631 21.0261 27.1779 21.4092 27.1779 21.8818V24.5994C27.1779 25.0721 27.5631 25.4552 28.0383 25.4552H30.7709C31.2461 25.4552 31.6313 25.0721 31.6313 24.5994V21.8818C31.6313 21.4092 31.2461 21.0261 30.7709 21.0261Z" fill="#3CB371"/>
<path d="M24.6376 29.2067H21.5878C21.2002 29.2067 20.886 29.5192 20.886 29.9047V32.9379C20.886 33.3233 21.2002 33.6358 21.5878 33.6358H24.6376C25.0252 33.6358 25.3394 33.3233 25.3394 32.9379V29.9047C25.3394 29.5192 25.0252 29.2067 24.6376 29.2067Z" fill="#3CB371"/>
</g>
<defs>
<clipPath id="clip0_88_145">
<rect width="180" height="52" fill="white"/>
</clipPath>
</defs>
</svg>
