<svg width="618" height="175" viewBox="0 0 618 175" fill="none" xmlns="http://www.w3.org/2000/svg">
<path d="M234.326 52.6235C233.222 51.5578 231.907 50.6519 230.434 50.0125C228.908 49.373 227.278 49 225.595 49H184.986C183.303 49 181.672 49.3197 180.147 50.0125C178.674 50.6519 177.307 51.5045 176.254 52.6235C175.097 53.6893 174.203 55.0215 173.572 56.5135C172.941 58.0055 172.625 59.6042 172.625 61.2561V113.851C172.625 115.502 172.941 117.101 173.572 118.593C174.203 120.085 175.097 121.364 176.254 122.483C177.412 123.602 178.727 124.455 180.2 125.094C181.725 125.734 183.303 126.053 185.039 126.053H225.647C227.33 126.053 228.961 125.734 230.486 125.094C231.959 124.455 233.327 123.602 234.432 122.483C235.589 121.364 236.43 120.085 237.114 118.593C237.745 117.101 238.061 115.502 238.061 113.851V102.714H223.911V112.145H186.722V62.908H223.911V72.3931H238.061V61.2561C238.061 59.6042 237.745 58.0055 237.114 56.5135C236.378 55.0215 235.484 53.6893 234.326 52.6235Z" fill="#2A334A" style="fill:#2A334A;fill:color(display-p3 0.1647 0.2000 0.2902);fill-opacity:1;"/>
<path d="M271.2 49H285.297V126H271.2V49Z" fill="#2A334A" style="fill:#2A334A;fill:color(display-p3 0.1647 0.2000 0.2902);fill-opacity:1;"/>
<path d="M372.984 112.092H333.638V49H319.488V113.797C319.488 115.449 319.804 117.048 320.435 118.54C321.066 120.032 321.961 121.311 323.118 122.43C324.275 123.549 325.59 124.401 327.063 125.041C328.588 125.68 330.166 126 331.902 126H374.667C376.35 126 377.981 125.68 379.506 125.041C381.032 124.401 382.347 123.549 383.452 122.43C384.609 121.311 385.45 120.032 386.134 118.54C386.765 117.048 387.081 115.449 387.081 113.797V49H372.984V112.092Z" fill="#2A334A" style="fill:#2A334A;fill:color(display-p3 0.1647 0.2000 0.2902);fill-opacity:1;"/>
<path d="M490.811 49L463.3 102.394L435.842 49H421.377V126H435.527V77.4021L460.67 126H465.983L491.126 77.4021V126H505.224V49H490.811Z" fill="#2A334A" style="fill:#2A334A;fill:color(display-p3 0.1647 0.2000 0.2902);fill-opacity:1;"/>
<path d="M113.238 49H100.193L70 126H84.3602L90.9879 109.055H116.289L110.871 95.1467H96.4059L106.716 69.036L129.019 126H143.431L113.238 49Z" fill="#2A334A" style="fill:#2A334A;fill:color(display-p3 0.1647 0.2000 0.2902);fill-opacity:1;"/>
<path d="M509.45 50.7654V49H518.466V50.7654H509.45ZM513.011 60.6667V49.9211H514.905V60.6667H513.011Z" fill="#2A334A" style="fill:#2A334A;fill:color(display-p3 0.1647 0.2000 0.2902);fill-opacity:1;"/>
<path d="M520.059 60.6667V49H521.953V60.6667H520.059ZM525.665 57.6732L520.21 49.5373L521.044 49.2303L522.104 49.0768L526.65 55.9079L525.665 57.6732ZM525.665 57.6732L524.756 55.8311L529.302 49L530.363 49.1535L531.196 49.4605L525.665 57.6732ZM529.454 60.6667V49H531.348V60.6667H529.454Z" fill="#2A334A" style="fill:#2A334A;fill:color(display-p3 0.1647 0.2000 0.2902);fill-opacity:1;"/>
</svg>
